# xmcd
#
# Track frame offsets:
#	150
#	17528
#	30522
#	44003
#	62685
#	75124
#	97497
#	112497
#	132142
#	145789
#	162832
#	176273
#	189557
#	206857
#	222759
#	238013
#
# Disc length: 3482 seconds
#
# Revision: 4
# Processed by: cddbd v1.5.2PL0 Copyright (c) Steve Scherf et al.
# Submitted via: EZCDAudioConverter 1.2.3.1
#
DISCID=e00d9810
DTITLE=Братья Гримм
DYEAR=2005
DGENRE=Поп/Джаз-Блюз
TTITLE0=Вторая половина
TTITLE1=Барабан
TTITLE2=Ресницы
TTITLE3=Лето
TTITLE4=Снег и вечер
TTITLE5=Аэроплан
TTITLE6=Катя (маман)
TTITLE7=Reality
TTITLE8=Пух и перья
TTITLE9=Сердце
TTITLE10=Галлюциноген
TTITLE11=Кустурица
TTITLE12=Раненое сердце
TTITLE13=Норвегия
TTITLE14=Instrumental (bonus)
TTITLE15=Data
EXTD=
EXTT0=
EXTT1=
EXTT2=
EXTT3=
EXTT4=
EXTT5=
EXTT6=
EXTT7=
EXTT8=
EXTT9=
EXTT10=
EXTT11=
EXTT12=
EXTT13=
EXTT14=
EXTT15=
PLAYORDER=
